<?xml version="1.0"?>
<svg xmlns="http://www.w3.org/2000/svg" viewBox="-1 0 512 512" width="512px" height="512px"><path d="m133.921875 362c-8.273437 0-15 6.722656-15 15s6.726563 15 15 15c8.277344 0 15-6.722656 15-15s-6.722656-15-15-15zm0 0" fill="#76a69b"/><path d="m420.921875 0c-21.035156 0-41.496094 7.410156-57.609375 20.859375-276.75 230.757813-269.402344 225.128906-269.402344 225.128906-3.113281 2.832031-4.988281 7.699219-4.988281 11.011719v25.546875c-4.949219 2.375-9.710937 5.140625-14.25 8.277344l-22.164063-12.804688c-7.167968-4.101562-16.324218-1.710937-20.492187 5.492188l-30 51.972656c-4.148437 7.179687-1.6875 16.351563 5.492187 20.496094l21.8125 12.597656c-.527343 5.835937-.527343 10.984375 0 16.84375l-21.8125 12.597656c-7.179687 4.144531-9.640624 13.316407-5.492187 20.492188l30 51.972656c4.261719 7.367187 13.484375 9.472656 20.492187 5.496094l22.164063-12.804688c4.539063 3.136719 9.300781 5.902344 14.25 8.277344v25.546875c0 8.289062 6.710937 15 15 15h60c8.292969 0 15-6.710938 15-15v-25.546875c4.953125-2.375 9.714844-5.140625 14.253906-8.277344l22.164063 12.804688c7.027344 4.007812 16.246094 1.84375 20.492187-5.492188l30-51.972656c1.039063-1.800781 1.660157-3.726563 1.898438-5.664063l40.671875-90.109374c12.75 23.265624 37.175781 39.257812 65.519531 39.257812 41.355469 0 75-33.648438 75-75 0-33.101562-21.699219-60.9375-51.511719-70.863281l74.476563-51.960938c.011719-.007812.027343-.015625.042969-.027343 6.644531-4.570313 12.679687-9.988282 18.132812-16.535157 13.449219-16.113281 20.859375-36.578125 20.859375-57.613281 0-49.628906-40.371094-90-90-90zm-287 422c-24.8125 0-45-20.1875-45-45s20.1875-45 45-45c24.816406 0 45 20.1875 45 45s-20.183594 45-45 45zm111.492187-32.597656-6.886718-3.980469c.527344-5.835937.527344-10.984375 0-16.84375l21.8125-12.597656c.109375-.0625.160156-.171875.265625-.238281zm128.507813-87.402344c-8.28125 0-15-6.714844-15-15s6.71875-15 15-15c8.285156 0 15 6.714844 15 15s-6.714844 15-15 15zm-42.523437-76.785156c-10.738282 7.375-19.960938 17.917968-25.851563 30.949218-.007813.019532-.011719.039063-.019531.054688l-38.019532 84.238281c-.292968-1.695312-.761718-3.390625-1.675781-4.96875l-30-51.972656c-4.199219-7.261719-13.402343-9.566406-20.492187-5.496094l-22.164063 12.804688c-4.539062-3.136719-9.300781-5.902344-14.25-8.277344v-25.546875c0-8.289062-6.710937-15-15-15h-18.59375l185.964844-155.394531c-.042969 1.148437-.375 2.242187-.375 3.394531 0 42.394531 29.558594 77.808594 69.082031 87.296875zm89.523437-105.214844c-16.535156 0-30-13.460938-30-30s13.464844-30 30-30c16.539063 0 30 13.460938 30 30s-13.460937 30-30 30zm0 0" fill="#76a69b"/></svg>
