<?xml version="1.0" encoding="iso-8859-1"?>
<!-- Generator: Adobe Illustrator 19.0.0, SVG Export Plug-In . SVG Version: 6.00 Build 0)  -->
<svg xmlns="http://www.w3.org/2000/svg" xmlns:xlink="http://www.w3.org/1999/xlink" version="1.1" id="Capa_1" x="0px" y="0px" viewBox="0 0 512 512" style="enable-background:new 0 0 512 512;" xml:space="preserve" width="512px" height="512px">
<g>
	<g>
		<g>
			<path d="M492,352c11.046,0,20-8.954,20-20V80c0-44.112-35.888-80-80-80H80C35.888,0,0,35.888,0,80v352c0,44.112,35.888,80,80,80     h352c44.112,0,80-35.888,80-80c0-11.046-8.954-20-20-20c-11.046,0-20,8.954-20,20c0,22.056-17.944,40-40,40H80     c-22.056,0-40-17.944-40-40V80c0-22.056,17.944-40,40-40h352c3.292,0,6.49,0.408,9.554,1.162L82.857,399.858     c-7.81,7.81-7.81,20.473,0,28.284C86.763,432.047,91.882,434,97,434s10.237-1.953,14.142-5.858l359.271-359.27     C471.439,72.407,472,76.138,472,80v252C472,343.046,480.954,352,492,352z" fill="#76a69b"/>
			<path d="M150,79c-11.046,0-20,8.954-20,20v30h-30c-11.046,0-20,8.954-20,20s8.954,20,20,20h30v30c0,11.046,8.954,20,20,20     s20-8.954,20-20v-30h30c11.046,0,20-8.954,20-20s-8.954-20-20-20h-30V99C170,87.954,161.046,79,150,79z" fill="#76a69b"/>
			<path d="M312,342c-11.046,0-20,8.954-20,20c0,11.046,8.954,20,20,20h100c11.046,0,20-8.954,20-20c0-11.046-8.954-20-20-20H312z" fill="#76a69b"/>
		</g>
	</g>
</g>
<g>
</g>
<g>
</g>
<g>
</g>
<g>
</g>
<g>
</g>
<g>
</g>
<g>
</g>
<g>
</g>
<g>
</g>
<g>
</g>
<g>
</g>
<g>
</g>
<g>
</g>
<g>
</g>
<g>
</g>
</svg>
